# xmcd
#
# Track frame offsets: 
#        150
#        12465
#        26170
#        37103
#        50023
#        62140
#        74233
#        86480
#        103668
#        115418
#        128633
#        139388
#        152428
#        166420
#        177080
#        191965
#        207608
#        220863
#        237013
#        255348
#        269508
#        285198
#        303645
#        316983
#        331480
#
# Disc length: 4604 seconds
#
# Revision: 0
# Processed by: cddbd v1.5.2PL0 Copyright (c) Steve Scherf et al.
# Submitted via: ExactAudioCopy v0.95b4
#
DISCID=8011fa19
DTITLE=Various Artist - EMI Music Publishing Country Hits [CD3: 1974-1982)
DYEAR=1994
DGENRE=Country
TTITLE0=Ronnie Milsap - Please Don't Tell Me How The Story Ends
TTITLE1=Hank Williams Jr. - A Rainy Night In Georgia
TTITLE2=Linda Ronstadt - Silver Threads And Golden Needles
TTITLE3=Linda Ronstadt - Stop And Smell The Roses
TTITLE4=Larry Gatlin and The Gatlin Brothers - Broken Lady
TTITLE5=George Jones - The Door
TTITLE6=Freddy Fender - Wasted Days And Wasted Nights
TTITLE7=Emmylou Harris - Together Again
TTITLE8=Crystal Gayle - Don't It Make My Brown Eyes Blue
TTITLE9=Dolly Parton - Here You Come Again
TTITLE10=Eddie Rabbit - Two Dollars In The Juke Box
TTITLE11=The Oak Ridge Boys - Come On In
TTITLE12=Kenny Rogers and Dottie West - All I Ever Need Is You
TTITLE13=Anne Murray - Daydream Believer
TTITLE14=Kenny Rogers and Dottie West - 'Til I Can Make It On My Own
TTITLE15=Emmylou Harris - Too Far Gone
TTITLE16=Dr. Hook - When You're In Love With A Beautiful Woman
TTITLE17=Kenny Rogers - You Decorated My Life
TTITLE18=Don Williams - I Believe In You
TTITLE19=Eddie Rabbit - I Love A Rainy Night
TTITLE20=Johnny Lee - Lookin' For Love
TTITLE21=Juice Newton - Angel Of The Morning
TTITLE22=Tompall and The Glaser Brothers - Loving Her Was Easier (Than A
TTITLE22=nything I'll Ever Do Again)
TTITLE23=Ronnie Milsap - There's No Gettin' Over Me
TTITLE24=Lacy J. Dalton - 16th Avenue
EXTD=
EXTT0=
EXTT1=
EXTT2=
EXTT3=
EXTT4=
EXTT5=
EXTT6=
EXTT7=
EXTT8=
EXTT9=
EXTT10=
EXTT11=
EXTT12=
EXTT13=
EXTT14=
EXTT15=
EXTT16=
EXTT17=
EXTT18=
EXTT19=
EXTT20=
EXTT21=
EXTT22=
EXTT23=
EXTT24=
PLAYORDER=
